<svg data-v-d3f97b9e="" xmlns="http://www.w3.org/2000/svg" viewBox="0 0 543 90"><!----><!----><!----><g data-v-d3f97b9e="" id="9e6c9f64-b927-43fa-82ca-547eb2d9ffe9" fill="#14A9A9" transform="matrix(5.813953123029061,0,0,5.813953123029061,98.44829722050329,-3.837209366153232)"><path d="M1.70 13.33L0.62 13.33L0.62 13.33Q0.12 13.33 0.29 12.88L0.29 12.88L3.64 4.08L3.64 4.08Q3.86 3.53 4.29 3.53L4.29 3.53L5.24 3.53L5.24 3.53Q5.67 3.53 5.89 4.08L5.89 4.08L9.24 12.88L9.24 12.88Q9.41 13.33 8.91 13.33L8.91 13.33L7.83 13.33L7.83 13.33Q7.38 13.33 7.20 12.86L7.20 12.86L6.50 11.02L3.03 11.02L2.33 12.86L2.33 12.86Q2.15 13.33 1.70 13.33L1.70 13.33ZM4.50 7.15L3.66 9.32L5.87 9.32L5.02 7.15L5.02 7.15Q4.87 6.77 4.84 6.59L4.84 6.59L4.84 6.59Q4.81 6.42 4.78 6.08L4.78 6.08L4.75 6.08L4.75 6.08Q4.72 6.42 4.69 6.59L4.69 6.59L4.69 6.59Q4.66 6.77 4.50 7.15L4.50 7.15ZM11.96 13.33L10.87 13.33L10.87 13.33Q10.46 13.33 10.46 12.92L10.46 12.92L10.46 6.56L10.46 6.56Q10.46 6.15 10.87 6.15L10.87 6.15L11.96 6.15L11.96 6.15Q12.37 6.15 12.37 6.56L12.37 6.56L12.37 12.92L12.37 12.92Q12.37 13.33 11.96 13.33L11.96 13.33ZM11.96 5.10L10.87 5.10L10.87 5.10Q10.46 5.10 10.46 4.69L10.46 4.69L10.46 3.81L10.46 3.81Q10.46 3.40 10.87 3.40L10.87 3.40L11.96 3.40L11.96 3.40Q12.37 3.40 12.37 3.81L12.37 3.81L12.37 4.69L12.37 4.69Q12.37 5.10 11.96 5.10L11.96 5.10ZM13.85 9.74L13.85 9.74L13.85 9.74Q13.85 8.24 14.50 7.13L14.50 7.13L14.50 7.13Q15.16 6.02 16.76 6.02L16.76 6.02L16.76 6.02Q17.38 6.02 17.81 6.19L17.81 6.19L17.81 6.19Q18.25 6.37 18.61 6.96L18.61 6.96L18.63 6.96L18.63 6.96Q18.61 6.69 18.61 6.41L18.61 6.41L18.61 3.65L18.61 3.65Q18.61 3.24 19.02 3.24L19.02 3.24L20.11 3.24L20.11 3.24Q20.52 3.24 20.52 3.65L20.52 3.65L20.52 12.92L20.52 12.92Q20.52 13.33 20.11 13.33L20.11 13.33L19.03 13.33L19.03 13.33Q18.69 13.33 18.66 12.92L18.66 12.92L18.63 12.52L18.61 12.52L18.61 12.52Q18.25 13.11 17.81 13.29L17.81 13.29L17.81 13.29Q17.38 13.47 16.76 13.47L16.76 13.47L16.76 13.47Q15.16 13.47 14.50 12.36L14.50 12.36L14.50 12.36Q13.85 11.25 13.85 9.74ZM15.87 9.74L15.87 9.74L15.87 9.74Q15.87 10.83 16.16 11.48L16.16 11.48L16.16 11.48Q16.44 12.13 17.36 12.13L17.36 12.13L17.36 12.13Q17.88 12.13 18.24 11.55L18.24 11.55L18.24 11.55Q18.61 10.97 18.61 10.05L18.61 10.05L18.61 9.43L18.61 9.43Q18.61 8.51 18.24 7.93L18.24 7.93L18.24 7.93Q17.88 7.36 17.36 7.36L17.36 7.36L17.36 7.36Q16.44 7.36 16.16 8.00L16.16 8.00L16.16 8.00Q15.87 8.65 15.87 9.74ZM22.04 8.43L22.04 8.43L22.04 8.43Q22.04 6.07 23.24 4.68L23.24 4.68L23.24 4.68Q24.43 3.29 26.69 3.29L26.69 3.29L26.69 3.29Q27.99 3.29 28.89 3.70L28.89 3.70L28.89 3.70Q29.79 4.10 30.16 4.87L30.16 4.87L30.16 4.87Q30.41 5.37 30.08 5.55L30.08 5.55L29.26 5.99L29.26 5.99Q28.83 6.22 28.55 5.73L28.55 5.73L28.55 5.73Q28.37 5.41 27.89 5.16L27.89 5.16L27.89 5.16Q27.41 4.91 26.76 4.91L26.76 4.91L26.76 4.91Q25.32 4.91 24.75 5.81L24.75 5.81L24.75 5.81Q24.17 6.72 24.17 8.43L24.17 8.43L24.17 8.43Q24.17 10.14 24.75 11.04L24.75 11.04L24.75 11.04Q25.32 11.95 26.76 11.95L26.76 11.95L26.76 11.95Q27.53 11.95 28.06 11.60L28.06 11.60L28.06 11.60Q28.59 11.25 28.79 10.94L28.79 10.94L28.79 10.94Q29.13 10.42 29.50 10.68L29.50 10.68L30.32 11.22L30.32 11.22Q30.66 11.45 30.39 11.91L30.39 11.91L30.39 11.91Q30.00 12.59 29.03 13.08L29.03 13.08L29.03 13.08Q28.07 13.56 26.69 13.56L26.69 13.56L26.69 13.56Q24.47 13.56 23.25 12.17L23.25 12.17L23.25 12.17Q22.04 10.79 22.04 8.43ZM31.69 9.74L31.69 9.74L31.69 9.74Q31.69 8.00 32.59 7.01L32.59 7.01L32.59 7.01Q33.49 6.02 35.27 6.02L35.27 6.02L35.27 6.02Q37.04 6.02 37.94 7.01L37.94 7.01L37.94 7.01Q38.84 8.00 38.84 9.74L38.84 9.74L38.84 9.74Q38.84 11.48 37.94 12.48L37.94 12.48L37.94 12.48Q37.04 13.47 35.27 13.47L35.27 13.47L35.27 13.47Q33.49 13.47 32.59 12.48L32.59 12.48L32.59 12.48Q31.69 11.48 31.69 9.74ZM33.71 9.74L33.71 9.74L33.71 9.74Q33.71 11.04 34.11 11.58L34.11 11.58L34.11 11.58Q34.51 12.13 35.27 12.13L35.27 12.13L35.27 12.13Q36.02 12.13 36.42 11.58L36.42 11.58L36.42 11.58Q36.82 11.04 36.82 9.74L36.82 9.74L36.82 9.74Q36.82 8.44 36.42 7.90L36.42 7.90L36.42 7.90Q36.02 7.36 35.27 7.36L35.27 7.36L35.27 7.36Q34.51 7.36 34.11 7.90L34.11 7.90L34.11 7.90Q33.71 8.44 33.71 9.74ZM41.82 13.33L40.73 13.33L40.73 13.33Q40.32 13.33 40.32 12.92L40.32 12.92L40.32 6.56L40.32 6.56Q40.32 6.15 40.73 6.15L40.73 6.15L41.81 6.15L41.81 6.15Q42.22 6.15 42.22 6.56L42.22 6.56L42.22 6.96L42.25 6.96L42.25 6.96Q42.56 6.42 43.05 6.22L43.05 6.22L43.05 6.22Q43.53 6.02 44.21 6.02L44.21 6.02L44.21 6.02Q45.28 6.02 45.98 6.69L45.98 6.69L45.98 6.69Q46.68 7.36 46.68 9.13L46.68 9.13L46.68 12.92L46.68 12.92Q46.68 13.33 46.27 13.33L46.27 13.33L45.17 13.33L45.17 13.33Q44.76 13.33 44.76 12.92L44.76 12.92L44.76 9.63L44.76 9.63Q44.76 8.13 44.56 7.75L44.56 7.75L44.56 7.75Q44.35 7.36 43.67 7.36L43.67 7.36L43.67 7.36Q42.96 7.36 42.59 7.91L42.59 7.91L42.59 7.91Q42.23 8.47 42.23 10.23L42.23 10.23L42.23 12.92L42.23 12.92Q42.23 13.33 41.82 13.33L41.82 13.33ZM50.03 13.33L48.93 13.33L48.93 13.33Q48.52 13.33 48.52 12.92L48.52 12.92L48.52 6.56L48.52 6.56Q48.52 6.15 48.93 6.15L48.93 6.15L50.01 6.15L50.01 6.15Q50.42 6.15 50.42 6.56L50.42 6.56L50.42 6.96L50.45 6.96L50.45 6.96Q50.76 6.42 51.25 6.22L51.25 6.22L51.25 6.22Q51.73 6.02 52.42 6.02L52.42 6.02L52.42 6.02Q53.48 6.02 54.18 6.69L54.18 6.69L54.18 6.69Q54.88 7.36 54.88 9.13L54.88 9.13L54.88 12.92L54.88 12.92Q54.88 13.33 54.47 13.33L54.47 13.33L53.38 13.33L53.38 13.33Q52.96 13.33 52.96 12.92L52.96 12.92L52.96 9.63L52.96 9.63Q52.96 8.13 52.76 7.75L52.76 7.75L52.76 7.75Q52.55 7.36 51.88 7.36L51.88 7.36L51.88 7.36Q51.16 7.36 50.80 7.91L50.80 7.91L50.80 7.91Q50.44 8.47 50.44 10.23L50.44 10.23L50.44 12.92L50.44 12.92Q50.44 13.33 50.03 13.33L50.03 13.33ZM56.34 9.74L56.34 9.74L56.34 9.74Q56.34 8.01 57.21 7.01L57.21 7.01L57.21 7.01Q58.07 6.02 59.65 6.02L59.65 6.02L59.65 6.02Q61.48 6.02 62.37 6.96L62.37 6.96L62.37 6.96Q63.26 7.90 63.26 9.99L63.26 9.99L63.26 9.99Q63.26 10.40 62.88 10.40L62.88 10.40L58.37 10.40L58.37 10.40Q58.47 11.54 58.93 11.83L58.93 11.83L58.93 11.83Q59.38 12.13 59.97 12.13L59.97 12.13L59.97 12.13Q60.54 12.13 60.84 11.98L60.84 11.98L60.84 11.98Q61.14 11.83 61.35 11.57L61.35 11.57L61.35 11.57Q61.58 11.27 61.92 11.47L61.92 11.47L62.60 11.89L62.60 11.89Q63.01 12.13 62.72 12.48L62.72 12.48L62.72 12.48Q62.30 12.97 61.74 13.22L61.74 13.22L61.74 13.22Q61.18 13.47 59.97 13.47L59.97 13.47L59.97 13.47Q58.01 13.47 57.18 12.47L57.18 12.47L57.18 12.47Q56.34 11.47 56.34 9.74ZM58.37 9.04L58.37 9.04L61.35 9.04L61.35 9.04Q61.35 8.30 60.98 7.83L60.98 7.83L60.98 7.83Q60.61 7.36 59.80 7.36L59.80 7.36L59.80 7.36Q59.16 7.36 58.78 7.81L58.78 7.81L58.78 7.81Q58.41 8.26 58.37 9.04ZM64.37 9.74L64.37 9.74L64.37 9.74Q64.37 8.00 65.24 7.01L65.24 7.01L65.24 7.01Q66.12 6.02 67.93 6.02L67.93 6.02L67.93 6.02Q68.99 6.02 69.58 6.30L69.58 6.30L69.58 6.30Q70.16 6.58 70.52 7.12L70.52 7.12L70.52 7.12Q70.73 7.44 70.45 7.62L70.45 7.62L69.73 8.10L69.73 8.10Q69.42 8.31 69.19 7.94L69.19 7.94L69.19 7.94Q69.07 7.77 68.74 7.56L68.74 7.56L68.74 7.56Q68.41 7.36 67.93 7.36L67.93 7.36L67.93 7.36Q67.16 7.36 66.77 7.90L66.77 7.90L66.77 7.90Q66.39 8.44 66.39 9.74L66.39 9.74L66.39 9.74Q66.39 11.04 66.77 11.58L66.77 11.58L66.77 11.58Q67.16 12.13 67.93 12.13L67.93 12.13L67.93 12.13Q68.48 12.13 68.82 11.89L68.82 11.89L68.82 11.89Q69.17 11.66 69.47 11.29L69.47 11.29L69.47 11.29Q69.73 10.98 70.01 11.20L70.01 11.20L70.65 11.70L70.65 11.70Q70.94 11.93 70.68 12.30L70.68 12.30L70.68 12.30Q70.42 12.70 69.78 13.08L69.78 13.08L69.78 13.08Q69.14 13.47 67.93 13.47L67.93 13.47L67.93 13.47Q66.12 13.47 65.24 12.48L65.24 12.48L65.24 12.48Q64.37 11.48 64.37 9.74ZM72.40 7.52L71.93 7.52L71.93 7.52Q71.53 7.52 71.53 7.18L71.53 7.18L71.53 6.49L71.53 6.49Q71.53 6.15 71.93 6.15L71.93 6.15L72.40 6.15L72.40 5.91L72.40 5.91Q72.40 5.61 72.54 5.35L72.54 5.35L73.07 4.43L73.07 4.43Q73.22 4.17 73.42 4.17L73.42 4.17L73.90 4.17L73.90 4.17Q74.31 4.17 74.31 4.58L74.31 4.58L74.31 6.15L75.42 6.15L75.42 6.15Q75.82 6.15 75.82 6.49L75.82 6.49L75.82 7.18L75.82 7.18Q75.82 7.52 75.42 7.52L75.42 7.52L74.31 7.52L74.31 10.91L74.31 10.91Q74.31 11.61 74.41 11.91L74.41 11.91L74.41 11.91Q74.51 12.22 74.93 12.22L74.93 12.22L74.93 12.22Q75.14 12.22 75.41 12.14L75.41 12.14L75.41 12.14Q75.67 12.07 75.82 12.00L75.82 12.00L75.82 12.00Q76.06 11.89 76.14 12.16L76.14 12.16L76.34 12.94L76.34 12.94Q76.41 13.17 76.17 13.28L76.17 13.28L76.17 13.28Q75.94 13.38 75.55 13.47L75.55 13.47L75.55 13.47Q75.15 13.56 74.76 13.56L74.76 13.56L74.76 13.56Q73.78 13.56 73.09 13.15L73.09 13.15L73.09 13.15Q72.40 12.75 72.40 11.49L72.40 11.49L72.40 7.52Z"></path></g><!----><g data-v-d3f97b9e="" id="939c873b-7e6a-46ac-955f-b0ef5b702fbe" transform="matrix(1.2187030452699386,0,0,1.2187030452699386,-24.41426287531759,-21.936654814858898)" stroke="none" fill="#14A9A9"><path clip-rule="evenodd" d="M60.17 40.35c0 .01 0 .03-.01.01l.01-.01zM56 57h4v3h-4v4h-3v-4h-4v-3h4v-4h3zM85.26 81.63c-.93-1.33-1.87-2.67-2.62-4.11-1.26-2.39-2.79-4.609-4.27-6.869-.83-1.261-1.58-2.54-1.86-4.08-.399-2.15-1.189-4.181-2.21-6.13-.34-.65-.8-1.061-1.52-1.181-.34-.05-.63-.2-.82-.5-.33-.55-.83-.75-1.45-.689-.35.04-1.45-.11-1.64-.391-.2-.279-.43-.55-.66-.81-.87-.96-1.75-1.91-2.62-2.87-.24-.27-.479-.561-.87-.34-.39.21-.47.59-.35.99.07.26.2.51.35.75.21.33.41.649.62.97-.33-.4-.649-.811-.979-1.22-.16-.2-.341-.351-.62-.26-.271.08-.431.27-.51.539-.101.38.02.721.159 1.061.73 1.819 2.021 3.33 2.9 5.08.57 1.13 1.15 2.229 1.49 3.46.21.79.189 1.43-.36 2.05-.39.45-1.01.75-1.56.56a18.373 18.373 0 0 1-2.221-.87c-.77-.359-1.569-.399-2.39-.39-.29.01-.56.16-.8.34a.93.93 0 0 0-.38.91c.04.32.359.33.609.4.641.16 1.24.41 1.811.76 1.26.75 2.649 1.27 3.8 2.229.1.08.24.141.37.171 1.689.42 3.229 1.25 4.91 1.68.34.08.64.25.899.49.63.55 1.2 1.14 1.62 1.87.47.81.87 1.659 1.33 2.47 1.62 2.84 2.78 5.87 3.73 8.99.38 1.27.72 2.56 1.09 3.84.12.43-.021 1 .46 1.319 1.77-3.1 3.53-6.199 5.3-9.3-.378-.189-.508-.599-.738-.919zm-18.5-23.31a2.67 2.67 0 0 1-.34-.301c-.36-.56-.72-1.09-1.07-1.64.33.42.67.82 1 1.23.21.25.46.47.7.699.08.082-.14.132-.29.012zM46.28 67.22c-.81-.069-1.61-.09-2.4.221-.74.29-1.51.51-2.28.71-.56.149-1.16-.19-1.51-.67-.51-.66-.49-1.301-.22-2.07.43-1.2 1.08-2.26 1.73-3.351 1-1.68 2.39-3.09 3.26-4.859.16-.33.3-.66.23-1.04-.06-.28-.21-.48-.47-.58-.27-.11-.46.03-.64.22-.36.38-.71.771-1.07 1.16.23-.31.46-.62.7-.94.16-.22.31-.47.4-.72.15-.39.09-.78-.28-1.021-.37-.239-.63.031-.89.281-.94.899-1.88 1.789-2.82 2.689-.25.23-.49.48-.71.75-.22.27-1.32.33-1.67.27-.61-.109-1.13.061-1.5.591-.2.29-.51.409-.84.439-.73.07-1.22.44-1.61 1.07-1.15 1.87-2.09 3.84-2.64 5.96-.39 1.51-1.22 2.729-2.14 3.93-1.64 2.15-3.32 4.25-4.75 6.55-.86 1.391-1.88 2.66-2.91 3.921-.25.3-.4.699-.8.859 1.54 3.22 3.08 6.44 4.63 9.65.49-.29.39-.86.55-1.29.46-1.24.88-2.5 1.36-3.74 1.17-3.05 2.54-5.99 4.36-8.71.52-.77.97-1.59 1.5-2.36.47-.71 1.09-1.25 1.75-1.76.27-.21.59-.36.93-.42 1.71-.31 3.31-1.03 5.02-1.33.13-.02.28-.06.38-.14 1.21-.87 2.64-1.29 3.95-1.96.59-.3 1.21-.511 1.86-.63.25-.04.57-.03.64-.351a.949.949 0 0 0-.32-.93c-.22-.199-.48-.369-.78-.399zm-5.2-8.46c.26-.21.52-.41.74-.649.35-.37.7-.74 1.06-1.11-.39.5-.77 1-1.15 1.51-.09.09-.23.19-.37.28-.16.109-.37.039-.28-.031z"></path><path clip-rule="evenodd" d="M62.37 18c-.021.43-.34.72-.53 1.05-.82 1.41-1.64 2.82-2.63 4.11-1.65 2.15-3.02 4.47-4.45 6.76-.8 1.28-1.65 2.5-2.92 3.4-1.8 1.26-3.311 2.83-4.65 4.57-.45.58-.62 1.17-.43 1.88.09.33.08.65-.12.95-.36.53-.33 1.07-.01 1.61.18.3.51 1.35.33 1.65-.17.3-.32.62-.45.93-.51 1.2-1.01 2.4-1.52 3.59-.14.33-.31.67.06.93.35.26.73.19 1.05-.09.2-.18.38-.4.53-.63l.63-.99c-.23.47-.46.94-.7 1.41-.12.24-.18.46.01.68.19.2.43.28.71.23.38-.07.64-.31.9-.58 1.34-1.44 2.17-3.24 3.391-4.77.789-.99 1.55-1.98 2.52-2.8.631-.53 1.22-.77 2.021-.53.56.16 1.5.65 1.659 1.21.23.76.44 1.54.57 2.32.15.83.58 1.51 1.07 2.16.18.25.45.38.74.47.35.11.699.02.96-.22.239-.22.06-.49-.03-.73-.24-.62-.46-1.25-.51-1.92-.111-1.46-.571-2.79-.571-4.27v-.02c0-.01.07-.02.07-.04-.32-1.7-.17-3.45-.49-5.16-.07-.34-.021-.69.09-1.02.24-.8.54-1.56 1.03-2.26.53-.77 1.14-1.48 1.68-2.24 1.91-2.66 4.18-4.98 6.61-7.15 1-.88 2.02-1.73 3.029-2.6.351-.3.91-.41 1.011-.97-3.56-.31-7.11-.61-10.66-.92zM48.43 45.62c-.039.16-.09.33-.13.44-.35.55-.68 1.08-1.02 1.61.23-.46.45-.92.67-1.38.149-.29.239-.61.35-.92.03-.11.171.07.13.25z"></path></g><!----></svg>