<svg data-v-d3f97b9e="" xmlns="http://www.w3.org/2000/svg" viewBox="0 0 53.25571391025355 60"><!----><!----><!----><!----><g data-v-d3f97b9e="" id="5c7eae1c-c911-43ea-bea9-ac2245978165" transform="matrix(0.8124686968466257,0,0,0.8124686968466257,-16.614985217252737,-14.624436543239263)" stroke="none" fill="black"><path clip-rule="evenodd" d="M60.17 40.35c0 .01 0 .03-.01.01l.01-.01zM56 57h4v3h-4v4h-3v-4h-4v-3h4v-4h3zM85.26 81.63c-.93-1.33-1.87-2.67-2.62-4.11-1.26-2.39-2.79-4.609-4.27-6.869-.83-1.261-1.58-2.54-1.86-4.08-.399-2.15-1.189-4.181-2.21-6.13-.34-.65-.8-1.061-1.52-1.181-.34-.05-.63-.2-.82-.5-.33-.55-.83-.75-1.45-.689-.35.04-1.45-.11-1.64-.391-.2-.279-.43-.55-.66-.81-.87-.96-1.75-1.91-2.62-2.87-.24-.27-.479-.561-.87-.34-.39.21-.47.59-.35.99.07.26.2.51.35.75.21.33.41.649.62.97-.33-.4-.649-.811-.979-1.22-.16-.2-.341-.351-.62-.26-.271.08-.431.27-.51.539-.101.38.02.721.159 1.061.73 1.819 2.021 3.33 2.9 5.08.57 1.13 1.15 2.229 1.49 3.46.21.79.189 1.43-.36 2.05-.39.45-1.01.75-1.56.56a18.373 18.373 0 0 1-2.221-.87c-.77-.359-1.569-.399-2.39-.39-.29.01-.56.16-.8.34a.93.93 0 0 0-.38.91c.04.32.359.33.609.4.641.16 1.24.41 1.811.76 1.26.75 2.649 1.27 3.8 2.229.1.08.24.141.37.171 1.689.42 3.229 1.25 4.91 1.68.34.08.64.25.899.49.63.55 1.2 1.14 1.62 1.87.47.81.87 1.659 1.33 2.47 1.62 2.84 2.78 5.87 3.73 8.99.38 1.27.72 2.56 1.09 3.84.12.43-.021 1 .46 1.319 1.77-3.1 3.53-6.199 5.3-9.3-.378-.189-.508-.599-.738-.919zm-18.5-23.31a2.67 2.67 0 0 1-.34-.301c-.36-.56-.72-1.09-1.07-1.64.33.42.67.82 1 1.23.21.25.46.47.7.699.08.082-.14.132-.29.012zM46.28 67.22c-.81-.069-1.61-.09-2.4.221-.74.29-1.51.51-2.28.71-.56.149-1.16-.19-1.51-.67-.51-.66-.49-1.301-.22-2.07.43-1.2 1.08-2.26 1.73-3.351 1-1.68 2.39-3.09 3.26-4.859.16-.33.3-.66.23-1.04-.06-.28-.21-.48-.47-.58-.27-.11-.46.03-.64.22-.36.38-.71.771-1.07 1.16.23-.31.46-.62.7-.94.16-.22.31-.47.4-.72.15-.39.09-.78-.28-1.021-.37-.239-.63.031-.89.281-.94.899-1.88 1.789-2.82 2.689-.25.23-.49.48-.71.75-.22.27-1.32.33-1.67.27-.61-.109-1.13.061-1.5.591-.2.29-.51.409-.84.439-.73.07-1.22.44-1.61 1.07-1.15 1.87-2.09 3.84-2.64 5.96-.39 1.51-1.22 2.729-2.14 3.93-1.64 2.15-3.32 4.25-4.75 6.55-.86 1.391-1.88 2.66-2.91 3.921-.25.3-.4.699-.8.859 1.54 3.22 3.08 6.44 4.63 9.65.49-.29.39-.86.55-1.29.46-1.24.88-2.5 1.36-3.74 1.17-3.05 2.54-5.99 4.36-8.71.52-.77.97-1.59 1.5-2.36.47-.71 1.09-1.25 1.75-1.76.27-.21.59-.36.93-.42 1.71-.31 3.31-1.03 5.02-1.33.13-.02.28-.06.38-.14 1.21-.87 2.64-1.29 3.95-1.96.59-.3 1.21-.511 1.86-.63.25-.04.57-.03.64-.351a.949.949 0 0 0-.32-.93c-.22-.199-.48-.369-.78-.399zm-5.2-8.46c.26-.21.52-.41.74-.649.35-.37.7-.74 1.06-1.11-.39.5-.77 1-1.15 1.51-.09.09-.23.19-.37.28-.16.109-.37.039-.28-.031z"></path><path clip-rule="evenodd" d="M62.37 18c-.021.43-.34.72-.53 1.05-.82 1.41-1.64 2.82-2.63 4.11-1.65 2.15-3.02 4.47-4.45 6.76-.8 1.28-1.65 2.5-2.92 3.4-1.8 1.26-3.311 2.83-4.65 4.57-.45.58-.62 1.17-.43 1.88.09.33.08.65-.12.95-.36.53-.33 1.07-.01 1.61.18.3.51 1.35.33 1.65-.17.3-.32.62-.45.93-.51 1.2-1.01 2.4-1.52 3.59-.14.33-.31.67.06.93.35.26.73.19 1.05-.09.2-.18.38-.4.53-.63l.63-.99c-.23.47-.46.94-.7 1.41-.12.24-.18.46.01.68.19.2.43.28.71.23.38-.07.64-.31.9-.58 1.34-1.44 2.17-3.24 3.391-4.77.789-.99 1.55-1.98 2.52-2.8.631-.53 1.22-.77 2.021-.53.56.16 1.5.65 1.659 1.21.23.76.44 1.54.57 2.32.15.83.58 1.51 1.07 2.16.18.25.45.38.74.47.35.11.699.02.96-.22.239-.22.06-.49-.03-.73-.24-.62-.46-1.25-.51-1.92-.111-1.46-.571-2.79-.571-4.27v-.02c0-.01.07-.02.07-.04-.32-1.7-.17-3.45-.49-5.16-.07-.34-.021-.69.09-1.02.24-.8.54-1.56 1.03-2.26.53-.77 1.14-1.48 1.68-2.24 1.91-2.66 4.18-4.98 6.61-7.15 1-.88 2.02-1.73 3.029-2.6.351-.3.91-.41 1.011-.97-3.56-.31-7.11-.61-10.66-.92zM48.43 45.62c-.039.16-.09.33-.13.44-.35.55-.68 1.08-1.02 1.61.23-.46.45-.92.67-1.38.149-.29.239-.61.35-.92.03-.11.171.07.13.25z"></path></g><!----></svg>